<?xml version="1.0" encoding="UTF-8"?>
<!DOCTYPE svg PUBLIC "-//W3C//DTD SVG 1.1//EN" "http://www.w3.org/Graphics/SVG/1.1/DTD/svg11.dtd">
<svg version="1.1" xmlns="http://www.w3.org/2000/svg" xmlns:xlink="http://www.w3.org/1999/xlink" width="100%" height="100%" viewBox="-184 -20 1000 750">
 <title>comparison of cartography surface development</title>
 <desc>Comparison of tangent and secant cylindrical, conic and azimuthal map projections with standard parallels shown in red by CMG Lee. The map is from http://commons.wikimedia.org/wiki/File:Globe_Atlantic.svg .</desc>
 <style type="text/css">
#main { font-family:Helvetica,Arial,sans-serif; font-size:50px; text-anchor:middle;
        fill:#000000; stroke:#000000; stroke-width:1; stroke-linejoin:round; stroke-linecap:round; }
text  { stroke:none; cursor:default; }
.var  { font-style:italic; }
#cylinder { fill:url(#grad_front); fill-opacity:0.75; }
#cone     { fill:url(#grad_front); fill-opacity:0.75; stroke-width:0.6; }
#plane    { fill:#eeeeee;          fill-opacity:0.75; }
.angle    { fill:#990000; stroke:#990000; stroke-width:2; }
.standard { fill:none;    stroke:#ff0000; stroke-width:3; }
.dashed   { fill:none;    stroke-dasharray:2,6; }
.expand   { fill:#ffffcc; }
.compress { fill:#66ccff; }
 </style>
 <defs>
  <radialGradient id="grad_globe" cx="50%" cy="50%" r="50%" fx="25%" fy="33%">
   <stop offset="20%" stop-color="#000000" stop-opacity="0"/>
   <stop offset="70%" stop-color="#000000" stop-opacity="0.3"/>
   <stop offset="99%" stop-color="#000000" stop-opacity="0.5"/>
  </radialGradient>
  <linearGradient id="grad_front" x1="0%" y1="0%" x2="100%" y2="0%">
   <stop offset="10%" stop-color="#eeeeee"/>
   <stop offset="90%" stop-color="#999999"/>
  </linearGradient>
  <linearGradient id="grad_back" x1="0%" y1="100%" x2="100%" y2="0%">
   <stop offset="10%" stop-color="#999999"/>
   <stop offset="90%" stop-color="#ffffff"/>
  </linearGradient>
  <linearGradient id="grad_cyl_tan" x1="0%" y1="0%" x2="0%" y2="100%">
   <stop offset="1%"  stop-color="#ff9966"/>
   <stop offset="49%" stop-color="#ffffff"/>
   <stop offset="50%" stop-color="#ff0000"/>
   <stop offset="51%" stop-color="#ffffff"/>
   <stop offset="99%" stop-color="#ff9966"/>
  </linearGradient>
  <linearGradient id="grad_cyl_sec" x1="0%" y1="0%" x2="0%" y2="100%">
   <stop offset="1%"  stop-color="#ffcc99"/>
   <stop offset="34%" stop-color="#ffffff"/>
   <stop offset="35%" stop-color="#ff0000"/>
   <stop offset="36%" stop-color="#ffffff"/>
   <stop offset="50%" stop-color="#99eeff"/>
   <stop offset="65%" stop-color="#ffffff"/>
   <stop offset="66%" stop-color="#ff0000"/>
   <stop offset="67%" stop-color="#ffffff"/>
   <stop offset="99%" stop-color="#ffcc99"/>
  </linearGradient>
  <radialGradient id="grad_con_tan" cx="50%" cy="50%" r="50%" fx="50%" fy="50%">
   <stop offset="1%"  stop-color="#ffcc99"/>
   <stop offset="48%" stop-color="#ffffff"/>
   <stop offset="50%" stop-color="#ff0000"/>
   <stop offset="52%" stop-color="#ffffff"/>
   <stop offset="99%" stop-color="#ff9966"/>
  </radialGradient>
  <radialGradient id="grad_con_sec" cx="50%" cy="50%" r="50%" fx="50%" fy="50%">
   <stop offset="1%"  stop-color="#ffeecc"/>
   <stop offset="33%" stop-color="#ffffff"/>
   <stop offset="35%" stop-color="#ff0000"/>
   <stop offset="37%" stop-color="#ffffff"/>
   <stop offset="50%" stop-color="#99eeff"/>
   <stop offset="63%" stop-color="#ffffff"/>
   <stop offset="65%" stop-color="#ff0000"/>
   <stop offset="67%" stop-color="#ffffff"/>
   <stop offset="99%" stop-color="#ffcc99"/>
  </radialGradient>
  <radialGradient id="grad_azi_tan" cx="50%" cy="50%" r="50%" fx="50%" fy="50%">
   <stop offset="3%"  stop-color="#ff0000"/>
   <stop offset="4%"  stop-color="#ffffff"/>
   <stop offset="99%" stop-color="#ff9966"/>
  </radialGradient>
  <radialGradient id="grad_azi_sec" cx="50%" cy="50%" r="50%" fx="50%" fy="50%">
   <stop offset="1%"  stop-color="#99eeff"/>
   <stop offset="33%" stop-color="#ffffff"/>
   <stop offset="35%" stop-color="#ff0000"/>
   <stop offset="37%" stop-color="#ffffff"/>
   <stop offset="99%" stop-color="#ffcc99"/>
  </radialGradient>
  <g id="cylinder">
   <ellipse cx="0" cy="-100" rx="61.237" ry="35.355" fill="url(#grad_back)"/>
   <path d="M -61.237,-100 A 61.237,35.355 0 0 0 61.237,-100 V 100 A 61.237,35.355 0 0 1 -61.237,100 Z M 35,128 V -70"/>
   <!-- <path d="M -61.237, 100 A 61.237,35.355 0 0 1 61.237, 100" class="dashed"/> -->
  </g>
  <g id="cone" transform="translate(0,-38) scale(1.5)">
   <path d="M 0,-50 L 57.282,37.5 A 61.237,35.355 0 1 1 -57.282,37.5 Z L 50,70"/>
   <!-- <path d="M -61.237,50 A 61.237,35.355 0 0 1 61.237,50" class="dashed"/> -->
  </g>
  <g id="plane">
   <ellipse cx="0" cy="-50" rx="97" ry="56"/>
  </g>
  <g id="equator">
   <path d="M -61,0 A 61,35 0 0 0 61,0"/>
   <path d="M -61,0 A 61,35 0 0 1 61,0" class="dashed"/>
  </g>
  <g id="secant_cylinder">
   <path d="M -52,-28 A 26,15 0 0 0 52,-28"/>
   <path d="M -52,-28 A 26,15 0 0 1 52,-28" class="dashed"/>
  </g>
  <g id="secant_cone">
   <path d="M -60,-10 A 50,29 0 0 0 60,-10"/>
   <path d="M -60,-10 A 50,29 0 0 1 60,-10" class="dashed"/>
  </g>
  <g id="secant_plane">
   <ellipse cx="0" cy="-40" rx="38" ry="22"/>
  </g>
  <mask id="mask_cylinder">
   <circle cx="0" cy="0" r="99999" fill="#ffffff"/>
   <path d="M -52,-28 A 26,15 0 0 0 52,-28 V 28 A 26,15 0 0 1 -52,28 Z"/>
  </mask>
  <mask id="mask_cone">
   <circle cx="0" cy="0" r="99999" fill="#ffffff"/>
   <path d="M -60,-10 A 50,29 0 0 0 60,-10 L 35,-50 A 38,22 0 1 1 -35,-50 Z" fill="#000000"/>
  </mask>
  <mask id="mask_plane">
   <circle cx="0" cy="0" r="99999" fill="#ffffff"/>
   <use xlink:href="#secant_plane" fill="#000000"/>
  </mask>
  <path id="arrow" d="M -10,0 H 10 M 0,-10 L 10,0 L 0,10" fill="none" stroke="#cccccc" stroke-width="6"/>
  <g id="globe" transform="scale(0.17)" fill="none" stroke="none">
   <circle cx="0" cy="0" r="360" fill="#ffffff"/>
   <path transform="translate(-360,-360)" fill="#0066ff" stroke="none" d="m358.49 720.71c-50.708 0-99.064-10.662-142.81-29.82 2.305-1.923 2.305-5.781-0.959-6.671-1.186-2.373-1.483-9.792 3.858-9.196 5.339 0.592 15.725 6.525 13.055-3.858-2.671-10.382 2.373-0.889 2.373-0.889s1.778-0.89 4.152 1.483c2.373 2.374 5.934 4.153 6.826 2.374 0.889-1.781 5.339-4.452 10.975-3.56 5.639 0.889 8.307-7.716 8.307-7.716s7.121 8.604 2.08-6.231c-5.045-14.832 0.293-8.307 3.561-8.898-0.298-2.373 1.186-0.298 1.48-4.45 1.781 1.779 17.801 1.481 17.801 1.481s-1.48-5.041 0.893-6.525c4.152 5.044 14.535 5.934 12.757 1.778 16.02-9.494 4.746-12.46 8.604-15.13 3.855-2.671 5.934-8.308 0.89-12.758 1.188-0.888 4.152-5.341 3.857-8.901 12.46 0.298 6.969-4.301 6.969-4.301s3.414 0.447 2.525-3.113c-0.893-3.561 9.494-5.045 8.899-7.121-0.593-2.078 2.968-5.341 5.636-5.934 2.671-0.595 6.231-7.121 7.417-9.199 1.188-2.077-6.821-6.823-6.821-6.823s-13.944 2.075-8.754-0.442c5.19-2.523-5.786-4.306-9.643-3.71-0.592-3.56-4.152-4.453-4.152-4.453s-8.01 2.079-8.901-2.373c-1.979-9.89-12.162-4.747-12.162-4.747s-10.979-2.965-14.836-7.12c-4.45 4.155-12.757 2.67-6.525-0.295 6.229-2.969 3.561-7.12 0.591-6.231-2.964 0.89-13.053 0.89-13.646-2.968-3.561-0.889-5.641 4.453-7.121 5.64-1.483-2.374-10.089 1.481-13.647 2.667-2.077-1.778-5.936 1.782-7.714 0.893-1.78-0.893-6.23 2.077-2.968-2.078 3.263-4.153 6.823-0.891 8.307-1.78 1.485-0.888 2.076-2.075 2.076-2.075s3.561 1.48 8.308-0.298c4.746-1.78 5.044-5.341 3.266-8.009-1.782-2.671-4.453 2.668-8.307 3.263-0.532-2.39 1.48-2.077 2.076-4.155 0.591-2.076-0.596-3.263-2.671-2.966-1.485 3.263-5.339 7.121-10.682 6.526 0-3.264-2.373-0.295-6.525 2.373-4.154 2.671-5.044-2.966-2.079-3.855 2.969-0.891 9.792-4.451 13.353-5.044 3.561-0.595 0.889-2.671 2.373-3.561 1.483-0.888 2.075 3.858 2.373-3.857 0.298-7.712-6.231-4.449-5.934-8.897 0.298-4.453-3.263-8.014-5.045-10.682-1.778-2.671-1.48-5.343-1.48-5.343l-2.969 0.298s-5.636-3.856-9.196-2.076c-5.636-9.199-11.867 0-13.055-3.857-1.186-3.856-8.604-1.483-11.867-3.561-3.263-2.076 3.263-8.604-1.782-11.57-3.549-2.088-4.448-6.825-4.448-6.825s-5.637 3.56-5.934-3.561c-0.298-7.12-5.339-5.637-7.714-3.561 0-2.076-2.078-2.964-4.153-3.56-0.891-1.779 5.934-2.668 5.934-2.668s2.67 0.889 4.746 0.294c-0.591-4.746-7.419-4.746-8.604-4.449-1.188 0.298-8.307 2.969-9.494 1.781-1.188-1.187-4.45-4.154-5.934-3.856-1.48 0.297-9.789-2.077-9.789-2.077s-1.483-4.154-3.266-4.154c-1.777 0-4.151-0.592-5.041-4.152 1.48-1.485 0.89-3.266 0.593-7.716-0.298-4.449-1.779-4.449-5.936-2.373 0 0 2.673 7.12-2.373 9.493-5.044 2.374-0.888 4.748-0.888 4.748s1.483 2.671-0.891 4.449c-2.373 1.782-1.484 2.079-4.746 0.893-3.267-1.188-2.672-4.747-1.188-6.231 1.481-1.484 2.374-3.263 4.151-5.342 1.782-2.076-0.591-3.56-0.888-5.34-0.298-1.78-0.596-3.857 2.965-4.746 3.561-0.89 1.781-3.263 0.596-2.671-1.188 0.596-1.485 1.483-4.45 1.187-2.969-1.778-4.453-1.483-5.934 0.89-1.783-1.188-13.649 0.595-13.353 2.373 0.298 1.782 0.593 3.266-1.186 3.857-1.782 0.596-2.672 2.969-2.97 6.529-1.778 10.975-3.854-1.188-3.854-4.453 0-3.263-0.596-3.854-3.713-4.892-1.335-3.412-6.079-2.82-7.267-2.228-1.186 0.595-8.307 1.186-8.307 0 0-1.188 0.89-8.309-2.373-8.309-0.595-2.373 0.298-4.746-2.228-8.75 2.818 0.148 1.633-1.93 0.743-4.45 0 0-0.446-3.413-1.188-4.006 1.039-0.149 1.039-1.484 1.039-1.484s4.304 0 4.304-3.706c0-3.711-2.373-4.453-1.633-6.379-1.928-1.781 0.445-5.64 1.928-6.528 1.483-0.89 2.968-4.45-0.89-5.045 1.187-2.965-2.966-5.339-8.01-5.636-1.188-1.187-1.487-3.263-6.678-3.561s-1.333-3.858 0.447-5.044c1.78-1.188 3.619-11.994 2.373-12.162 4.448 0.592 7.119 1.187 7.119-2.671s3.858-0.596 3.561-5.934c-0.298-5.343 6.713 2.528 1.188-6.823-3.858-6.528-6.231-1.187-10.087-2.671-3.996-1.535-7.714 3.857-3.559 8.308 2.075 0.889-1.957 5.934-7.716 5.934-2.076 0-5.046-7.27-5.046-8.308s-0.445-2.969-3.708-4.3c-3.263-1.337-2.226-5.491 0.447-6.381 0.595-2.969-0.149-9.937-0.149-9.937s1.037-2.525 0.744-3.117c1.629-0.89 2.519-7.563 2.373-8.902-1.188-3.264 2.668-6.229 7.563-6.377 0.889-1.778-0.89-7.12-1.63-7.864-0.744-0.74 2.076 0.446 1.778-4.747 2.075-0.889 2.968-2.222 2.968-4.747 1.333-2.52 1.78 0 2.375-2.374 0.591-2.373-0.299-5.188 1.186-5.934 1.482-0.74 4.153-0.592 4.748-0.442 4.448 1.037 4.448 3.709 7.414 2.816 2.968-0.889 2.373 1.187 2.671 3.857 0.297 2.671 0.592 5.935 1.928 4.155 0 0 2.67 1.188 1.187 5.636-0.297 1.634 1.187 0.89 1.041 2.374 1.188 2.966 4.301 1.633 4.301 1.633s1.038-0.889 0.295-2.521c-0.74-1.633-0.89-6.231 0.152-6.675 1.033-0.446-1.042-3.117-1.042-3.117s-1.631-3.263 1.187-2.225c2.819 1.037 2.373 1.484 2.819 2.816 0.444 1.339 2.672 2.229 5.934 1.781 3.263-0.442-4.151 1.633 4.747 2.966 1.188 2.82-2.202 0.74 1.188 3.561 0.889 0.743-0.447 2.228-1.188 2.968-0.744 0.744-0.744 2.522 0 2.966 0.74 0.446 2.226-0.443 2.523 0.595 0.74-1.038 2.075 1.038 2.224 2.966 2.522 2.525 0.299 5.044-1.187 5.934-1.484 0.893 0.596 3.561 0.596 3.561-3.266 0.297-3.266 1.93-2.969 2.373 0.298 0.446 0.148 1.339-0.297 1.781 1.78 1.336 0.445 4.007-0.295 7.121 1.63 1.778 1.332 5.044 1.035 6.525-0.295 1.484 2.968 1.633 3.857-0.89 0.889-2.519 1.633-1.484 2.076-1.484 0.445 0 0.445-1.778-0.593-2.965s-0.74-2.969-0.442-4.155c0.295-1.187 0.145-1.778 2.373-1.778 1.928-1.485 2.077-3.709 4.152-5.342-2.671 0-1.931-1.035-1.778-2.222 0.146-1.187-2.228-3.117-2.374-4.898-0.152-1.779-0.152-4.45 2.965-8.308 0.74-2.076 0-5.34 0-5.34 1.485-2.373 2.966-1.777 5.488-1.927 2.522-0.148 6.082-3.414 9.052-2.819 2.965 0.592 4.448-3.857 4.448-3.857 2.671-2.076 5.342 1.187 8.604-0.593 3.263-1.781 7.713-5.044 6.823-8.013-0.889-2.965 5.343-0.889 2.075-10.976-2.373-4.746 2.668-4.448 0.447-6.674-2.225-2.228 9.047-3.411 9.789-0.297 2.523-0.446 1.633-5.491 6.379-2.522 0.595-3.857 5.045-6.528 8.014-1.484 2.965 5.044 6.227 0.298 6.227 0.298s4.453-3.267 6.53-2.08c2.075 1.188-7.125-6.228-0.447-8.154-0.147-6.678 8.456-6.678 9.941-6.086 1.483 0.596 10.322 2.31 14.538-1.481 2.965-2.671 9.787 0.89 5.338 2.077-4.448 1.187-6.525 2.965-6.823 4.448-3.263 0-4.338 5.881 0.298 3.561 2.373-1.187 4.45-5.044 5.934-3.263 1.481 1.778 3.263 1.484 3.855-0.148 6.083 0.893 7.86-0.446 7.86-0.446s2.079-2.222 1.931-4.151c2.226-0.74 5.934-0.74 6.083-4.301 0.148-3.561-0.741-4.007-0.741-4.007l-4.602 0.148s-2.519-0.744-2.519-1.931c-1.042 1.931-5.64 1.633-5.935 0.596-0.296-1.038-2.373-7.27-0.594-8.01 1.781-0.741 0-2.079 0-2.079s-2.522 0.893-3.561 0.595 1.483-2.373 0-2.969c-1.484-0.592 7.119-0.146 9.937-0.74 2.819-0.592 4.453-0.89 1.931-5.487-2.522 0-6.823 3.113-8.307 0.148-1.484-2.969-7.568 2.816-10.238 2.076-2.668-0.744-5.781 1.336-7.121 2.969-1.331 0-4.301 4.003-7.414 3.854s-3.709 0.148-3.709 0.148-1.187-2.076 0-1.782c1.187 0.297 2.969-0.443 3.561-1.332 0.594-0.889 4.003-1.336 5.784-2.672 1.778-1.335 7.121-4.896 9.052-4.896 1.927 0 0.592-2.815 3.113-2.225 0 0 0.89 0.444 1.039 1.039 0.148 0.591 1.926-1.928 5.189-0.149 2.228-0.148 4.452-3.561 10.833-0.445 0.74 1.633 1.186 4.154 1.186 4.154s1.481-0.298 1.188 2.819c-0.297 3.115 2.668 5.636 5.339 3.115-0.744-3.263-0.298-5.343 0.74-5.488 1.041-0.148 3.561 0.146 3.561 0.146s2.82 1.633 10.534-2.076c2.076 0.149 3.706-1.484 4.153-3.857 0.442-2.373 2.373 0 3.561-2.966 1.186-2.968 3.708-2.968 4.448-3.263 0.74-0.298 0.595-4.301-0.295-5.044-0.893-0.74-2.373-0.89-3.413 0-1.038 0.89-1.485-2.522-5.339-0.595-3.858 1.93-3.71 0.595-3.71 0.595s1.335-1.335 1.928-1.63v-1.187s5.193-0.151 6.976-1.339c1.778-1.187 0.146-5.189-5.934-4.152-1.042-1.629 3.262-1.629-0.744-4.598-0.741-2.225 0.744-2.374-0.891-5.045l1.04-0.148s-0.3-3.412 0.442-4.004c0.743-0.595 0.152-2.521 0.152-2.521s1.773-2.52 0.146-5.785l1.04-0.89-0.297-1.781s1.627-1.48 2.52-2.076c0.893-0.595 0.296-2.969 0.296-2.969l-1.483 0.596s-1.928-4.152-4.748 0.297c0.596 1.034-0.891 1.633 0 2.668-1.926 0.446-2.518 2.225-2.518 2.225s-0.748-0.44-1.336 0.149c-1.038-1.188-1.928-0.592-2.82 0-0.888 0.595-5.193-0.447-4.896-2.076 0.89-0.298 1.042-0.744-0.442-1.484-1.483-0.74 0.592-4.446 1.037-5.339 0.447-0.89 3.706-3.71 3.855-1.187 0.152 2.519 2.671-2.82 0.445-3.709-1.037-1.634-0.147-5.64-1.48-6.528-1.338-0.89 0.588-2.52-2.525-4.004-3.114-1.484-2.668-2.671-2.668-2.671s-3.562 0.301-5.044-0.592 1.187-1.042-2.225-1.633c-3.412-0.595-3.713-0.592-4.896-1.336-1.188-0.743-3.561 0.298-3.561 0.298s0.592 1.336 0 2.076c-0.596 0.74 1.188 1.629 1.188 1.629s0.442 2.079 1.483 3.117c1.037 1.039-1.633-0.592-0.596 3.263-0.442 2.08-1.63 0.893-2.225 2.08-0.591 1.187-1.633 2.519-1.633 2.519s-2.373 1.19-1.187 2.82c1.187 1.629-6.38-3.706-4.45 6.822-1.186 0.596-1.628 2.374-1.483 3.267-2.817-1.188-3.561 0.595-3.561 4.746 0 4.153-2.816 1.333-5.041 2.668-2.079 0.74-5.345 0.152-5.64 0.298 0.744 1.038-0.443 1.782-2.373 1.928 0 0-2.519 0.743-2.966 4.006 0 0-2.675 0.893-2.671 1.782 0 0.889-5.741 1.126-0.89 4.746 0.593 0.443-2.075 1.928-2.075 1.928s-0.301 1.931-0.298 2.225c0 0.298-5.785 0.443-5.934-0.446s-3.263 0.149-0.298-3.857c2.229-0.146 2.969-1.034 2.523-5.636-0.447-4.599 1.483 1.187 4.155-5.935 0.591-1.927-0.597-5.633 0.442-6.079 1.041-0.446 0.298-1.781 0.298-1.781 1.483-4.305-5.636-1.634-3.71-8.754 1.928-7.12 0.74-3.26-1.633-4.599-0.889-0.889-0.293-2.667-0.293-2.667s-6.083 1.332-2.673-4.453c3.413-5.785-1.483-2.522 3.118-6.083l-0.298-1.629s1.928 2.374 3.858-6.38c2.075 0 5.636-2.671 5.781-3.561 0.152-0.889 4.898 0.148 7.272-2.373 2.374-2.522 3.854 1.778 11.421-4.301-0.445 1.778 5.042 0 5.042 0s0.743 0.889-1.035 1.927c1.778 0.298 3.854 0.148 4.211 1.226 0.007-0.002-0.458-1.993 1.57-3.007 1.339 1.041 4.304-1.631 4.899-2.373 0.592-0.741 2.817-1.631 3.705-1.188 0.89 0.446 4.155-1.927 6.083-1.48-0.89-2.82 0.298-2.671 5.044-2.82 1.485-1.336 4.155-1.038 4.155-1.038s2.519-2.968 0-5.934c-2.525-2.968-3.116-8.01-4.601-5.934s-4.301 0.592-4.301 0.592-1.931 9.494-7.121 2.374c-1.778 1.78-4.746 1.187-4.746 1.187s0.74-3.114-1.484-5.782c-2.226-2.671 2.225-3.414-0.295-10.237-1.339 0.889-2.969-0.595-2.969-0.595l-0.592 4.154s-4.602 2.672-3.712-3.709c0.893-6.38 2.374-8.899 6.086-8.753 3.706 0.151 0-4.747 0-4.747s1.331-1.188 2.373-0.592c1.035-1.336 2.222-9.048 0-9.494 0.593-0.443 1.631-1.63 1.631-1.63s2.67-2.079-1.928-1.93c-4.602 0.148-3.709 1.483-3.709 1.483s-2.079-2.671 0.446-3.266c0.442-1.188 1.332-2.374 6.674-2.816 5.338-0.446-1.927-1.187 7.713-3.117 0-2.076 1.478-3.275 10.237-2.817 5.636 0.298 4.003-2.373 4.45-5.338 3.113-0.596 9.494-2.969 9.345-8.754-0.148-5.784 1.633-3.709 1.335-6.826-0.298-3.113 9.494-2.965 11.276-5.339 1.035 1.931 5.041 2.672 5.041 2.672 2.373 0.591 15.133-3.858 15.133-3.858s5.042 2.671 9.494-0.595c1.779 6.231 5.041-5.339 11.867 0.595 4.152-0.297 2.374-3.857 8.898-1.484 0 0 6.824 0.298 8.309-0.297 1.483-0.592 8.901 2.079 10.383-1.187 1.484-3.264 10.979 0 10.979 0s-6.231 4.452 1.782 4.154l1.477-0.066c6.956-0.383 9.864-1.51 6.532-2.901-3.561-1.481 4.747-1.778 9.197 2.968 2.67 0.593 7.716-0.298 7.716-0.298s1.322-0.372 3.263 2.672c2.075 3.263 1.778-8.01 5.934-3.263 2.671 1.481 1.186-3.266 13.351 0.294 12.162 3.561 3.561 8.013 3.561 8.013l0.592 1.481-1.778 2.671c-4.452 2.672-3.857 6.823 3.264 0.89 3.559 5.044 0.296-6.526 15.427 0.297 3.56-1.484 1.778 6.528 6.824 2.076 0 0-0.593 4.155 6.229 2.079 6.823-2.079 3.857 2.076 3.857 2.076s5.043-2.373 7.714-1.187c2.67 1.187 1.269 2.756 12.462 4.151 4.746 0.596 0 3.858-3.561 3.561 0.295 2.969 12.219 7.566 10.086 3.561-2.374-4.45-0.89-4.45 2.373 1.187 3.264 5.64 10.682-2.668 10.682-2.668s4.746 3.854 3.56 6.228c-1.188 2.374 2.374 4.156 2.374 4.156 4.449-1.782 13.336 4.896-1.779 3.56-10.089-0.89-4.453 4.152-3.561 4.747 0.89 0.592 6.823-5.342 7.416 5.045 0.595 10.383 3.266 6.228 3.266 6.228s7.12-2.667 6.228 4.155c-0.89 6.823-1.777 9.197 5.64 15.428 7.414 6.231-3.561 7.418-5.64 5.636-2.076-1.778-9.788-2.076-12.161-0.297-2.375 1.781-0.893-2.373 2.373-2.667 3.263-0.298 0.89-4.453 6.525-6.232 5.637-1.781-7.418-5.636-9.494-4.154-2.075 1.484-10.681-2.668-18.69-0.593l-1.188-1.781s-5.341 0.298-5.043 1.781c0.297 1.485-8.01-1.187-11.272 2.966-3.266 4.155 2.964 10.387 0 13.649 4.448 1.778 6.822 9.494 5.934 13.054-0.893 3.561 6.227 2.966 6.227 2.966s3.561 1.187-0.293 7.12c3.854 1.484 2.373 8.902 1.188 11.276-1.188 2.373 3.559 5.636 2.373 8.898-1.188 3.266 5.934 3.266 5.934 3.266s2.965 7.712 5.338 9.788c2.374 2.079 8.039-3.016 7.12-11.272-0.296-2.671 4.45 0.89 4.45 0.89s5.64 4.747 5.045 7.418c-0.592 2.671-1.779 5.934-5.339 3.561-1.484 5.637-0.595 13.351 5.934 11.867-0.299-3.263 2.668-2.671 2.668-2.671s-5.649-4.896 5.64-2.076c5.934 1.484 2.373-5.342 5.636-11.275 3.263-5.935 5.636-7.713-1.782-7.416-7.414 0.295-9.165-5.437-9.787-7.417-1.783-5.637-1.025 4.247-9.201-8.01-2.964-4.453 1.902-2.345-3.854-6.826-2.671-2.076 2.965-8.899 2.965-8.899s-2.965-4.746-8.308-2.373c-5.339 2.373-1.187-5.045 0-4.747 1.188 0.298 5.343 1.484 7.418 0 2.077-1.484 4.45 2.671 4.45 2.671s-1.712 16.368 6.823 14.535c4.154-0.89 3.856 9.494 10.386 1.484h2.965s1.188-4.449 3.264-3.561c2.079 0.89 1.782-6.23 0.893-8.01-0.893-1.781 10.219 0.193 5.934 13.055-1.781 5.339-8.308 4.747-8.308 4.747l3.561 6.23c3.262 9.494 8.307 10.681 6.524 21.656-0.411 2.522-6.23 3.266-6.23 3.266s-0.591 6.823-8.899 6.526-5.044 2.075-6.231 2.373c-1.186 0.297 0.298 6.529-2.373 6.822-2.67 0.298-2.67 10.979-10.384 2.374-7.714-8.602-2.67 12.165 0.89 7.715 3.561-4.448 1.485 8.308 2.969 5.34 1.48-2.966 0.89 10.978-9.199 11.573-10.085 0.591 1.483 7.414 3.857 6.823 2.373-0.596 2.969 2.671-9.791 2.373-12.757-0.298-10.087 13.352 2.078 9.196 12.162-4.152 5.934 1.187 5.934 1.187l2.668 2.076s-1.041 0.449-1.262 1.857c-0.219 1.408 3.934 3.484 4.822 4.076 0.893 0.596 4.748 8.307 3.857 10.387-0.89 2.076 4.748 9.494-16.614 5.041-2.373 3.561-14.538 0.595-14.538 0.595s3.836 4.624-6.229 5.339c-4.155 0.298 5.637 1.782 6.526 8.604 0.89 6.823 3.857 8.01 3.857 8.01l-0.297 9.792s2.373 5.637 11.569 2.671c0 5.934 4.155 10.978 13.947 3.561h5.934s-1.188-5.343 8.307-5.343c1.188-2.373-1.781-3.854 1.778-7.712 3.562-3.857-6.822-6.528 4.747-14.241 11.57-7.715-4.747-1.781 4.155-13.054-2.079-3.263-7.12-16.023 5.934-7.716 0.295-4.747 1.188-13.646 2.374-13.646s13.988-5.038 13.054 7.12c-0.297 3.857 5.637-1.782 13.055 7.121 6.229-0.298 13.646 2.965 13.646 2.965s-2.02 5.924-0.591 13.054c0.591 2.969-5.343 1.187-5.343 1.187-1.483 7.716 9.494 4.453 12.462 4.155 2.966-0.297-3.559-7.12-3.559-7.12-1.188-5.637 10.975-10.681-0.596-15.428 0 0 11.275-3.857-5.338-5.342-14.492-1.291-9.201-4.747-9.201-4.747s-8.898 0.297-9.787-7.712c-10.091-0.298-5.934-17.503 5.339-2.969 11.274 14.538 0-3.56 13.649 6.529 4.448 0 12.458 2.671 13.053 4.746 0.592 2.076 1.482 8.309 1.482 8.309s4.451-1.783 4.746 1.777c0.297 3.561 9.494 7.418 10.68 5.934 1.188-1.48 7.907 6.203 3.268-3.854-1.783-3.856 2.373-3.856 2.373-3.856 2.373-5.638-8.307-0.891-8.902-7.121-0.592-6.231-1.188-10.682-1.188-10.682s5.343-2.373 5.637 0c2.08-1.781-0.889-15.13-5.041-13.054-4.155 2.076 4.747-6.231-3.561-9.494 1.48-4.747-5.044-4.154-2.969-10.088-4.747-1.779-3.263-6.229-0.592-6.229-1.186-2.671 3.561-3.858 3.561-3.858s0.89-5.342 4.748-3.561c-1.188-4.154-1.485-11.867 0.591-11.274 2.075 0.595 2.374 2.373 2.374 2.373s2.964 2.674-0.149 6.678c-3.113 4.003 2.522 3.709 2.522 3.709s5.934-0.595 7.715 2.075c3.561-2.075 6.525 0 6.525 0s2.076 3.858 7.121 4.45c5.045 0.595 2.152 12.311-5.339 13.351-10.681 1.485-4.452 7.714-7.12 10.979-2.671 3.263-8.307-0.298-7.121 19.281 2.077 5.934 6.823 5.64 6.823 8.014 0 2.373-1.484 0.89-1.484 0.89s-0.297 5.044 6.528 8.307 6.229-0.298 7.713-1.187c1.483-0.89-0.89-3.857 3.263-3.857-0.592-3.263 1.782-9.792 3.561-7.713 2.969-3.857 4.746 10.086 6.231 6.823 1.483-3.263-0.593-8.902-0.593-8.902s2.076-3.263 8.899 11.275c-0.89 6.823 9.494 15.428 1.188 16.614-8.307 1.188 4.448 6.526-8.899 8.308-2.671 4.747-7.716 1.778-7.716 1.778s2.373 5.64-13.646 2.969c-0.296 6.525-12.163 3.263-7.715 6.525 4.449 3.267-2.671 3.267 0.596 14.241-4.453 1.484-16.913 0.595-17.803 0-0.891-0.593-1.186-8.01-7.715-0.89-5.338-0.889-9.626-0.244-12.459 0.89-5.934 2.373-1.484-7.415-2.968-8.899-1.485-1.484 3.211-11.446-1.78-10.681-7.714 1.187-9.79-2.374-13.351 0.592-3.56 2.968-13.352 6.528-15.13 6.528-1.782 6.231-8.903 10.979-11.276 11.272 0 6.231-10.681 6.529-10.681 6.529s0.595 6.822-6.524 7.12c-7.121 0.298 0.591 5.636-16.913 2.671-0.595 8.308-8.307 11.272-9.494 14.241-1.186 2.966 9.498 30.855-17.801 30.855-1.483 0 2.373 2.373 2.373 2.373s0.891 3.854-2.075 6.229c-2.968 2.373-0.595 11.275-6.231 15.133-5.636 3.855-10.979 31.149 1.188 37.976 2.373-3.858 5.934 5.041 0 10.682-4.748-1.188-5.934 2.373-5.934 5.636s-5.935 6.231-5.935 6.231c4.747 3.56-2.117 4.918 4.747 9.493 2.671 1.778-8.009 9.494 3.561 9.788 11.57 0.299 13.353 5.64 13.353 5.64s1.777 3.264 3.261 3.561c1.485 0.294-0.888 2.373-0.888 2.373l0.293 3.264s8.903-2.374 10.387 14.24c1.482 16.614 17.503 3.857 17.503 3.857s6.526 24.922 18.988 9.494c6.823-1.484 18.988 1.188 18.988 1.188s3.561-3.268 3.561-5.641 3.857-2.668 4.747 0.298c0.889 2.968 6.266-2.87 6.266-2.87s3.261-15.582 19.412-18.668l3.103-1.898s3.607 4.382 2.99 6.196c-0.617 1.812 2.43-0.595 2.43-0.595s4.861 9.277 6.099 7.771c1.236-1.505 5.925-11.211 7.288-2.945 1.662 0.253 4.035 2.627 4.332 4.11 0.298 1.481 2.373-0.297 2.373-0.297-1.777-4.747 3.561-13.649 5.343 4.152 1.778 17.801-5.64 7.715-0.893 21.659 6.231-1.78 6.231 4.155 6.231 4.155s8.01 3.561 3.56 6.524c-4.449 2.97 5.343 7.716-0.297 22.548 8.902 2.374 7.422 8.855-2.374 8.309-5.339-0.298-2.964 15.428-9.493 20.174 1.781 5.934-10.086 13.352-1.187 18.988-2.375 5.341-1.481 11.867-1.481 11.867s-5.045 2.373-4.452 16.614c-5.934 3.858-4.153 10.383-3.561 11.867 4.453 0.596 14.24-9.196 16.32-13.943 2.075-4.747 1.777 2.076 7.711-5.637 5.934-7.714 8.309-8.307 10.09-8.604 1.777-0.297 3.56-2.67 4.747-8.901 5.637-1.48 5.339-5.636 8.01-8.308 2.67-2.667 8.009-8.308 10.384-9.493 2.373-1.188 0.888-5.34 0.888-5.34s3.266-3.856 4.748-2.968c1.483 0.892 3.561-8.602 2.078-11.272-1.483-2.671 7.712-2.373 7.712-2.373s-1.186-2.969 1.782-2.373c-0.893-7.121 7.713-9.792 3.855-19.286 5.044 0.594 2.671-9.791 9.199-9.791 1.778-3.561 0.89-10.087-0.298-11.273 4.748 0.89 8.899-6.529 10.682-9.197 1.778-2.67 16.019-27.592 7.712-36.196 2.67-12.459 1.78-18.69 1.186-20.175-0.591-1.483 10.141-10.466 7.121-22.548-1.778-7.12 3.561-8.898 5.934-17.802 2.374-8.899-4.746-3.262 0.595-14.24 5.339-10.978-1.781-8.307-1.781-8.307s2.079-9.792 4.747-10.681c2.672-0.89-2.966-9.494-2.966-9.494s-0.595-5.045 2.076-5.636c2.672-0.596 0-9.494-2.372-10.09 2.372-2.373 1.483-9.196 0.594-12.459-0.893-3.263 2.965-10.383-0.594-11.275-2.967 3.266-0.299 5.64-1.779 10.089-1.483 4.449 1.779 11.57-4.747 13.055-6.528 1.483-4.155-7.418-4.155-7.418s-0.297-5.045-3.263-4.748c-2.968 0.298-2.671-3.262-2.671-3.262s-5.045 3.857-4.747-2.076c0.297-5.934-1.188-10.387-1.188-10.387s-3.262 0.297-5.339-2.965c-5.044 0-2.968-8.308-2.968-8.308s-4.449-2.373-4.746-5.934c-2.673 2.075-8.899-7.418-7.712-8.902 1.186-1.481-7.121-2.965-7.716-6.228-0.593-3.267-5.339-7.121-7.121-7.419-1.778-0.297-0.593-13.054-0.593-13.054s5.043 1.484 4.153 8.307c0.89 3.858 6.23 1.484 6.23 1.484s-4.325 2.444 5.934 4.152c3.561 0.596 3.561 6.231 3.561 6.231h3.858s2.965 9.494 2.373 13.352c2.966 2.374 6.229 1.187 6.229 1.187s0 4.45 3.266 6.823c3.263 2.373 4.152 5.934 4.152 7.12 0 1.188 7.417 0.298 7.715 3.858 0.295 3.56-1.187 7.12 2.373 10.383-1.186 4.152 2.668 8.01 2.965 0.298 0.298-7.716-1.483-13.65 2.673-16.023 2.67-5.636-1.188-6.822 0-12.459 1.186-5.639 0-22.548-6.823-23.44-1.188-5.042 0-21.362-2.969-23.735-2.965-2.373-1.779-6.525-1.779-6.525s-5.342-4.155-4.154-5.934c1.187-1.781-4.45-13.054-3.857-0.595-2.076 0 1.483 3.56 1.483 3.56s-3.858 1.485-3.56 5.343c-3.562-3.263 1.187-6.823-7.713-6.231-4.155-3.262 0.592-11.57-4.155-10.979-4.746 0.596-7.12 0.298-5.934-6.525 1.188-6.822 4.155 2.374 4.155 2.374s3.561 0 6.229 2.076c2.671 2.075 10.978-2.076 5.341-5.339 0 0 4.153-5.64 0.593-6.529-3.561-0.889-1.482-5.339-5.339-7.712 2.671-0.298 2.373-5.342 2.373-5.342l1.307-1.541c23.759 48.16 37.122 102.44 37.122 159.85-0.01 198.75-160.2 359.93-357.79 359.93zm41.21-615.03c0.149 0.889-1.335 1.037-2.373 1.48-1.038 0.446-1.629 3.266 1.038 3.561 1.039 1.339 5.014 0.921 5.014 0.921s0.627-1.661-1.304-1.661c0.147-0.446-1.336-1.038-1.545-1.365-0.22-0.33 0.35-2.05-0.84-2.94zm5.7 0.39c1.275 0.06-4.81 1.069 0.535 1.601 0.591 0.833 2.876 0.861 3.738 0.178 0.86-0.684 0.116-2.76-0.919-2.313-1.041 0.443-2.465-0.534-2.465-0.534l-0.9 1.06zm1.42 5.39c-1.483 0.443-1.879 0.801-1.383 1.811 0.494 1.007 1.99-0.475 3.32 0.712 1.32 1.19 1.32-2.52-1.94-2.52zm12.41 42.48c-1.778 0.987 0.789 2.366 1.975 1.579 1.19-0.78 0.2-1.58-1.97-1.58zm25.57-3.01c-1.631 0.889 1.187 1.777 1.93 1.777 0.74 0 0.593-1.927 0.593-1.927s-1.34 0.59-2.52 0.15zm-0.74 8.75c-1.335 0.743 0.592 1.781 1.485 1.187 0.89-0.6 0.15-1.19-1.48-1.19zm-66.01-61.243c0.418 0.177 0.804 0.206 1.041 0.034 0.539-0.395 1.628-0.606 1.249-1.314 0.548-0.96-0.227-2.008-0.227-2.008s5.193-7.567-3.115-11.127c2.373-1.188 5.934-5.343 2.522-10.829 0 0 2.82-1.039 1.485-6.526 8.749-4.896 7.269-7.566-5.786 0.146 4.746-4.746-5.343-2.965-9.494-1.187-4.155 1.781-17.21 0-8.753-2.816 8.453-2.816 4.598-6.082-5.637-2.966-10.238 3.114-9.939 0.443-11.422 1.035-1.483 0.595-9.791-2.373-10.386-5.339-0.591-2.968-8.899-3.56-12.534 1.263-1.264-2.893-12.979 3.484-12.979 9.418-14.242 2.374-13.055 4.747-9.494 5.339 7.119-1.187 22.547 3.561 7.562 3.414-14.983-0.147 0.744 3.706 5.343 5.638 8.155-1.039 10.681 5.044 10.681 5.044s-3.412 3.706 1.927 8.453c-7.712 4.154-1.778 5.342-1.778 8.308 0 2.968-2.968 7.715-4.304 8.459-0.146 0.442-2.52 0.74-0.74-0.744 1.781-0.595-1.188-5.045-3.412-4.599-7.547 1.517-2.226 9.938 2.668 10.384 4.896 0.446 2.82 6.674-1.333 4.301-4.154-2.374-9.494 3.56-5.49 6.975-4.896-1.336-4.004 7.861-0.591 12.165-3.713 6.082-0.447 14.684 4.301 15.275 4.746 0.595 4.746 1.187 7.269 7.864 2.519 6.678 11.127-0.148 10.532-6.678-0.593-6.525 6.23-10.383 5.342-9.494 0 0 5.934-2.373 2.374-2.965-3.561-0.595 0-6.528 0-6.528l6.525 0.595c7.119 5.339 9.345-6.083 9.345-6.083s9.051-0.446 9.196-5.636c0.148-5.19 9.349-1.335 13.649-5.044 4.301-3.706 9.345-12.906 5.339-16.909-4.006 3.709-10.827-4.898-3.561-5.044 1.11-0.02 1.99-0.119 2.68-0.269zm65.06 57.143c0.34 0.802 0.227 1.829-0.115 1.946-0.345 0.114 2.398 0.342 1.829-0.801-0.57-1.15-0.92-1.83-1.72-1.15zm-77.4-104.04c0.664 1.901 3.117 3.319 4.022 2.661 0.904-0.655 2.892-0.959 1.308-2.466-1.39-1.322-6.52-2.423-5.33-0.195zm95.7 84.397c0.445 1.041 0.298 2.373-0.149 2.522-0.445 0.148 3.115 0.445 2.373-1.038-0.74-1.48-1.18-2.37-2.22-1.48zm26.09 37.39c0.661 1.898 3.113 3.317 4.021 2.658 0.905-0.654 2.89-0.955 1.304-2.462-1.38-1.32-6.51-2.42-5.32-0.2zm-10.92-4.89c-0.149 0.137-0.329 0.244-0.415 0.439 0.196 0.58 0.24 1.282 0.711 1.744-0.219 0.184-0.495 0.301-0.59 0.598-0.061 0.272-0.18 0.631 0.122 0.83 0.59-0.124 1.245-0.357 1.815-0.079 0.424-0.431 1.171-0.438 1.171-0.438 0.842-0.486 0.775-1.5 0.438-2.281l0.287-0.513c-0.332-1.199-0.871-2.411-1.14-3.671l-0.468-0.516c-0.136 0.012-0.274 0.034-0.354-0.118-0.385 0.507-0.949 0.231-1.314-0.06-0.356 0.073-0.733 0.225-0.919 0.583 0.438 0.506 0.75 0.92 0.49 1.39-0.261 0.467-0.053 1.04 0.157 1.296 0.19 0.27-0.82 0.4 0 0.8zm-25.11-4.02s-4.453 2.521-3.561 2.968c0.89 0.446 4.746 1.633 1.034 2.226-3.706 0.595 1.187 2.521 2.229 2.521 1.038 0 2.224 2.076 2.373 3.263-2.522 1.931 4.301 2.819 4.151 3.263-0.147 0.446-1.186 3.857-1.186 3.857s1.186-0.595 1.781 0.593c0.592 1.187 0.297 1.781 0.297 1.781s2.966-1.781 2.668-1.484c-0.295 0.298-0.74 1.633-0.591 2.671 1.038-0.148 1.186 1.484 0.296 3.709-2.67 2.522-1.186 3.263 0 3.263-0.15 1.484-1.04 5.343 1.78 3.857 2.815-1.483 4.003-0.148 1.335 2.374-2.671 2.522 1.038 2.076 1.48 3.56-0.74 2.817 4.305 2.077 4.9 0.15 1.926 2.521 1.926-2.672 2.964-2.672s3.263 0 4.005-1.038 1.338-1.038 2.228-1.187c0.889-0.149 3.856 0.298 5.635-2.225 1.782-2.522-3.56-7.121-3.56-7.121s-5.785 0.89-5.338-1.927c0.442-2.819-4.603-2.374-4.9-3.267-0.293-0.889-2.075-4.151-4.892-4.301-1.337-2.373-4.155 0-3.857-4.006 0.297-4.007-0.446-4.152-1.188-4.301-0.743-0.148-2.226-1.038-2.671-2.968 1.483-3.412-1.48-3.412-1.778-3.264-0.297 0.148-0.744 6.525-2.077 0.148-1.32-6.36-3.39-1.02-3.54-0.43zm152.39 85.38c-1.508 0.006-1.078 3.051-0.167 2.165 0.906-0.887 2.168 1.348 2.168 1.348l1.132 0.364s1.08-3.052 1.353-1.051c0.275 1.993 1.787 1.984 2.038 0.942 1.468 0.168 1.667-3.092 1.667-3.092s-2.224 0.57-3.069-0.737c-0.85-1.29-3.86 1.11-5.12 0.07zm-18.58 15.94c-1.932 0.297-0.447 2.671 0.442 1.781 0.889-0.892 3.189 0.665 3.189 0.665l1.558 0.076s0.446-2.672 1.411-1.111c0.963 1.557 2.892 1.26 2.892 0.37 1.928-0.151 1.188-2.819 1.188-2.819s-2.671 0.889-4.154 0c-1.49-0.89-4.61 1.64-6.53 1.04zm5.78-7.12c-0.939 0-0.74 1.782 0.447 1.63 1.19-0.14 3.11-1.63-0.45-1.63zm-7.86-0.89c0.444 1.038 0.295 2.373-0.15 2.519-0.443 0.152 3.116 0.446 2.373-1.035-0.74-1.49-1.18-2.38-2.22-1.49zm-36.36 3.57c0.471 1.355 0.146 2.077 0.248 2.144 0.041 0.027 0.152-0.053 0.413-0.241 0.905-0.655 6.251-0.199 4.665-1.706-1.38-1.31-6.51-2.42-5.32-0.19zm-20.6 1.62c1.528-0.534-0.19-2.509 1.148-2.12 1.338 0.393-0.021-1.538-0.949-1.729-0.93-0.19-1.9 3.42-0.2 3.85zm-121.94 181.28c-1.632 0.297-0.293 5.044 1.782 3.857 2.075-1.188 0.74-3.411 2.52-3.411 1.781 0 4.006-1.039 1.041-1.634-2.97-0.6-5.19 2.52-5.34 1.18zm-5.34-16.17c-1.633-0.89-1.483 2.079-2.373 3.708-2.82 1.931-0.445 5.193-0.298 3.561 0.149-1.63 2.523-2.225 2.374-3.857 5.79-5.78 0.6-3.86 0.3-3.41zm14.38 7.71c0.819 1.19 2.139 1.77 3.687 0.96 0.512-1.732 0.512-3.425-0.212-4.558-1.055-0.5-2.213 0.459-3.387 0.589l-0.651 2.436 0.56 0.57zm18.26-113.15c2.143-0.487 1.254 5.203 3.667 2.924 2.41-2.27-0.03-5.4-3.67-2.92zm-7.6-11.33c0.474 1.925 2.209 3.354 2.849 2.69 0.639-0.662 2.045-0.966 0.924-2.491-0.98-1.34-4.61-2.45-3.77-0.2zm6.73-8.85c2.187-0.766-0.271-3.589 1.644-3.028 1.91 0.558-0.033-2.203-1.356-2.475-1.32-0.27-2.71 4.89-0.28 5.51zm8.32 11.87c0.163 2.066 2.236 3.249 3.308 2.328 1.068-0.917 3.119-1.623 1.937-3.065-1.05-1.27-5.86-1.6-5.25 0.74zm-261.14 120.61c-1.052 0.342 1.05 1.295 2.535 2.336 1.48 1.035-0.895 2.668-3.54 3.322-2.648 0.656-0.913 3.799-0.17 3.203 0.74-0.592 1.186-0.297 1.781-0.297 0.592 0 4.597 1.335 4.597-0.593 0-1.931 2.371-2.373 3.844-3.401 1.466-1.025 1.646-3.275 1.506-4.57-0.139-1.291-1.791-3.155-2.513-2.174-0.727 0.979-3.872 0.651-4.767 1.096-0.88 0.44-1.92 0.88-3.27 1.07zm-21.05-1.08c0 1.483 2.225 0.594 1.483 1.633-0.744 1.038 1.331 0.443 1.779-0.299 0.45-0.73-2.37-2.66-3.26-1.33zm9.35-13.64c1.337 0.445-1.037 3.263 1.041 2.82 2.07-0.45 1.78-2.97-1.04-2.82zm-2.07 6.8c-0.714-1.301-2.238 0.547-2.086-0.718 0.151-1.271-1.384 0.249-1.417 1.114-0.03 0.87 3.37 1.21 3.51-0.39zm4.29-12.14c-0.382 1.213 0.097 2.568 0.664 2.418 0.573-0.152 1.441 0.147 1.334-1.058-0.08-1.06-1.7-2.87-1.99-1.36zm-1.9-6.9c1.451 0.308 1.041-2.054 1.904-1.114 0.86 0.944 0.713-1.212 0.08-1.8-0.63-0.59-3.1 1.76-1.98 2.91zm-8.18-19.21c0 1.483 2.223 0.595 1.48 1.633-0.739 1.038 1.337 0.442 1.782-0.298 0.44-0.74-2.37-2.67-3.26-1.33zm3.85 5.49c-0.591 1.188 0.148 2.519 1.039 2.373 0.889-0.147 2.246 0.146 2.076-1.04-0.15-1.04-2.67-2.82-3.12-1.33zm-39.52-47.29c0.37-1.367 1.389-0.607 2.035 0 0.645 0.61 0.047-1.826 0.047-1.826s-0.047-1.522-1.62-0.304c-1.58 1.22-0.65 2.8-0.47 2.13zm2.7 7.46c0.949-0.19 0.598-0.854 0.471-1.52-0.126-0.667-1.336 0.251-1.054 0.302 0.278 0.05 0.62 0.376 0.459 0.547-0.16 0.18-0.43 0.8 0.12 0.67zm-5.45-17.28c-0.894 0.592 0.293 1.039 0.739 1.039s0.446 0.889 0.149 1.335c-0.298 0.446 2.521 0 1.778-1.037-0.75-1.05-1.19-2.38-2.67-1.34zm-5.05-10.24c1.183-1.336 4.45-0.596 6.525 0 2.076 0.595 0.152-1.782 0.152-1.782s-0.152-1.484-5.194-0.298c-5.04 1.19-2.06 2.73-1.48 2.08zm159.17-104.29c-0.743-1.483-0.743 2.82-0.743 3.561 0 0.744-1.188 0.149-1.188 1.633 0 0.332 3.149 2.058 2.82 0-0.593-3.708 1.038-2.225 1.633-3.857 1.23-3.36-1.92-2.36-2.52-1.33zm-45.98-108.73c-0.889 0.148-0.298 1.927 0.74 1.483 1.039-0.445 2.225-1.04 2.672-0.298 0.445 0.741 0-2.075-1.782-1.633-0.88 0.22-1.04 1.04-1.63 0.45zm28.48-9.41c0.062-0.357-0.297-0.475-0.711-0.298-0.177 0-0.177 0.298-0.177 0.652 0 0.37 0.65 0.19 0.89-0.35zm7.86-2.31c0.149-0.893-0.74-1.187-1.78-0.74-0.444 0-0.444 0.74-0.444 1.63s1.63 0.45 2.22-0.89zm-28.18-34.267c-3.562-0.442-2.079 1.779-0.595 2.077-0.744 0.147-0.146 1.927 0.595 3.113 0.74 1.188-0.297 2.82-0.893 4.304-0.595 1.484-2.221-1.781-2.221-2.819s-4.305-1.484-3.415 0.148c0.889 1.634-0.74 4.598 0.445 5.488-0.445 4.303 1.038 4.006 1.782 6.23 0.74 2.226 6.526 5.193 7.121 2.076 0.591-3.114 4.594-1.038 4.594-3.263s2.525-1.336 3.416-3.411c0.89-2.076 1.037 0.148 2.075-3.118 1.038-3.262-2.373-4.301-2.82-2.815-0.442 1.483-1.483 3.857-3.559 3.56 1.183-1.63 0.743-3.411 0.595-3.56-0.152-0.146-2.08 2.373-2.08 0.442 1.485-4.152-0.89-5.189-0.89-5.189v-0.89s2.229 1.038 1.336-1.484c-0.91-2.522-3.73-1.632-5.5-0.889zm18.54-1.483s-1.777 0.297-1.335 1.037c0.447 0.744 2.075 1.633 0 2.077-2.075 0.446 0 2.075 0 2.075l1.931-0.74s0.89-0.889 2.225 0.298c1.336 1.187 3.113-1.633 1.633-2.077-1.484-0.445-0.893-0.147-1.78-2.521-0.9-2.375-2.68-1.187-2.68-0.149zm21.21-11.571c-2.966 0-5.19 2.076-1.928 4.449 2.373 0.298 1.925 1.19 1.335 1.782-0.595 0.592 0 1.63 0 1.63s-2.968 1.336-3.856 2.373c-0.89 1.038 0.886 1.19 2.373 0.446v2.225s-2.522 1.782-3.561 0.74c-1.037-1.038-1.484 1.633 0 2.374 1.485 0.74 4.892 0.301 6.822-0.889 1.484 0.889 5.194 1.335 5.194 1.335s2.969 4.152 4.3-0.446c1.337-4.599 0.149-3.854 0.149-3.854s2.225-4.453-0.89-5.045c-3.116-0.595 3.412-1.336 3.412-1.336l0.148-1.633s0.89-2.961 2.225-2.965c1.336 0 0.146-5.637-4.45-4.155-4.598 1.484-6.23 0.741-6.23 0.741s-3.411 0.743-1.781 1.633c1.66 0.893-3.24 0.595-3.24 0.595zm-39.16 8.75c-0.296-0.889 1.932-1.038 3.264 0 0.744-0.298 0.446-2.076 0.893-3.113 0.446-1.038-0.148-2.076-0.446-1.485-0.295 0.596-1.633 0.741-2.373 0.893-0.447 0.443-2.077 1.481-3.561 1.333-3.11-0.001 1.34 1.632 2.23 2.372zm13.5-7.86c-4.599-1.634-3.118 0-4.599 0.594-1.928 2.521 1.927 1.188 1.927 2.077s-1.187 0.591-0.148 1.483c1.042 0.89 4.45-1.187 2.82-1.483-1.63-0.298 0-1.633 0-2.671zm17.06 5.784c-0.261 0.254-0.644 0.282-1.029 0.301-0.072 0.381 0.247 0.696 0.412 1.058 0.512 0.11 0.93-0.26 1.443-0.152 0.233-0.288 1.043-0.443 0.821-0.905-0.48-0.289-1.08-0.26-1.64-0.302zm-7.86-21.51c-2.075 0 0 2.373 0.893 2.373 0.889 0 0.442 1.187 2.221 1.484 1.782 0.298 1.042-2.671 0.447-2.373-0.6 0.299-1.36-1.484-3.56-1.484zm200.26 20.62c4.152-0.297 7.121 0.295 8.307 0.295 1.188 0 3.855-0.889 4.748 0 0.89 0.893 4.743-5.931-2.229-4.893-6.973 1.038-5.487 1.038-7.563-0.446-2.077-1.484-3.561-3.857-5.343-3.56-1.778 0.297-5.041-2.076-4.448-3.561 0.595-1.484-5.339-0.89-6.823-1.782-1.483-0.889-4.449-5.636-6.231-5.934-1.186 2.672 1.484 7.716 6.231 8.013 0.89 4.153 6.525 8.308 8.009 8.308 1.47 0.001 5.33 3.56 5.33 3.56zm-49.55-20.173c-8.308 9.196 1.483 2.373 1.187 5.637-0.295 3.263 4.155 0.297 3.857 2.373 0.89 4.45 9.196-0.596 6.528-1.187-2.67-0.596-3.857-5.934-2.968-7.716-1.78-1.778-4.45-0.592-8.61 0.893zm-9.79 19.877c-2.08 2.077 0.294 8.308 2.965 8.011 2.671-0.298 6.823-1.485 6.823-1.485s2.079 4.155 0 5.342c-2.077 1.187-8.108 0.668-0.294 3.561 8.009 2.965 10.086 2.076 10.681 0.592 0.591-1.48 3.262-6.525 4.746-6.229 1.188-2.671-4.155-5.044-1.187-6.826 2.965-1.778 0.592-8.307 0.592-8.307s-4.151 0.298-5.934 3.266c-1.779 2.966-4.152-0.297-5.934-0.297-0.298 1.778-1.484 3.263-1.484 3.263l-1.187-2.671c0-0.002-8.31-0.297-9.79 1.78zm-14.83 69.423c-3.263-3.263-4.747 0-2.077 4.453-3.857-0.893-6.528 2.373-3.263 2.373 3.263 0 11.867 3.561 4.152 3.561-7.711 0-0.592 4.152 2.374 3.854 2.968-0.294 2.968-0.592 5.045 0.298 2.075 0.889 6.231-0.89 6.231-0.89s1.48-5.045 5.636-5.637c1.778-7.12-5.045-10.386-6.823-9.79-1.781 0.591-1.485 2.075-3.561 2.67-2.09 0.6-5.82 1.02-7.72-0.88zm-155.76-61.71c-0.188 0.25-0.463 0.278-0.74 0.298-0.055 0.372 0.177 0.684 0.294 1.04 0.37 0.108 0.674-0.256 1.041-0.151 0.169-0.281 0.754-0.434 0.592-0.889-0.35-0.29-0.77-0.257-1.18-0.298zm20.47-21.363c-0.187 0.25-0.462 0.279-0.745 0.298-0.05 0.374 0.182 0.684 0.298 1.041 0.371 0.108 0.671-0.256 1.042-0.152 0.168-0.28 0.75-0.433 0.591-0.889-0.35-0.288-0.78-0.257-1.19-0.298zm-5.79 1.339c-0.661-0.316-1.392-0.373-2.078-0.595-0.428 1.709-2.041 0.993-3.263 0.89-0.398 0.715-0.753 0.266-1.485 0.298-1.186 0.601-1.683 1.408-1.186 2.67 0.772 0.801 0.746 1.826 1.483 2.671 1.267-0.588 1.994-1.955 1.782-3.266 1.174 0.664 2.024-0.544 3.263-0.592 0.443 0.77 1.37 0.734 2.076 0.297 0.05-0.848 0.1-1.743-0.58-2.373zm17.81 1.778c-0.08-0.91-0.716-1.262-1.188-1.778-2.52-0.43-3.383 2.513-3.561 4.45-0.661 0.123-0.598 0.785-0.893 1.187-0.157 1.281-0.389 2.937-1.778 3.263-0.168 1.364 0.733 2.513 1.778 3.263 0.143-0.839 1.099-0.655 1.485-1.188h0.888c0.792 1.087 1.874 0.855 2.375-0.294 0.113-0.601 0.445-1.098 0.893-1.484-0.258-0.243 0.727-0.901-0.298-0.89 0.256-0.246-0.729-0.901 0.298-0.892 0.079-0.285-0.089-0.446-0.298-0.592 0.298-1.484-0.063-3.098 0.889-4.45l-0.58-0.595zm-27.45 71.356c-0.187 0.247-0.462 0.275-0.743 0.295-0.051 0.373 0.18 0.684 0.298 1.041 0.369 0.107 0.671-0.253 1.04-0.148 0.168-0.285 0.75-0.438 0.593-0.893-0.35-0.28-0.78-0.25-1.19-0.29zm6.82-6.23c0.595-0.148-0.447-2.374 0.148-3.561 0.592-1.187 0.89-0.89 0.592-2.522-0.295-1.633-1.778-0.592-2.519 0.149-0.063 0.819-1.069 1.003-1.188 1.778-0.892-0.25-1.554 0.23-2.075 0.893 0.497-0.104 0.568 0.424 0.889 0.592v0.889c1.387 0.665 1.187 2.095 0.89 3.267 0.642 1.072 1.497 1.797 2.671 2.076 1.56-0.56 1.45-2.23 0.6-3.57zm19.81 5.26c-0.374-2-4.672 0.816-7.64-0.52-0.38-0.839-1.137-0.55-1.778-0.595-0.418 0.292-0.76 0.614-0.595 1.188-1.21 0.063-2.564-0.744-3.561 0.595-1.296 0.366-1.655-1.602-2.966-1.188-0.81 1.105-1.782 1.336-2.968 0.593-1.038 1.187-2.681 2.759-1.188 4.746 0.442 0.596 3.26 1.634 3.484-0.072 1.022 0.377 2.082 0.032 3.117 0.148 0.44 0.484 1.178 0.152 1.631 0.595 0.519 0.813 1.554 1.561 1.78 1.188l0.669-0.671c1.55 1.319-0.175 2.705 0 4.155 1.815 2.705 4.022 5.048 6.528 7.12-1.032 4.104 2.243 8.007 6.525 7.712-0.336-0.921 0.931-1.445 0.594-2.373-2.268-2.434-1.869-5.826-2.373-8.898 1.273 0.974 2.754 0.484 4.152 0.591 2.241-3.582 1.257-9.304-2.373-11.867v-4.151c-0.811-1.456-1.643-0.887-2.965-0.596-0.118 1.196 0.714 2.007 1.186 2.969 0.38 0.78-0.85-0.38-1.25-0.66zm23.81 6.01c-0.045-3.197-1.716-6.209-1.188-9.494-1.323-2.044-2.326-4.573-2.373-7.12 1.453-0.934 3.117-1.301 4.746-1.779-0.445-1.551 0.076-3.224-0.595-4.746-1.221-0.526-1.744-2.446-3.56-1.782 0.237-1.016-1.842-0.484-1.187-1.778v-5.342c0.413 0.291 1.497 0.613 1.335 1.187 2.769-0.487 4.352 2.079 4.599 4.747 2.174-1.614 1.721-4.69 1.782-7.12-1.273-0.703-2.265-1.694-2.97-2.966-1.471 0.411-2.747-0.57-4.151-0.595v-4.747c-0.431-1.12-1.947-0.063-2.373-1.187-0.418-1.082-0.391-2.26-1.188-3.561h-1.782c-2.534-3.02-7.082-2.292-10.68-1.778-1.874 1.158-2.843 3.099-4.153 4.746-2.334-0.646-3.895-2.98-6.528-2.968-0.716 0.703-0.819 1.861-1.778 2.373-0.246 1.643 1.011 3.089 0.593 4.748h-1.188c0.349 1.145-1.37 0.218-1.188 1.186-0.544 2.333 0.479 3.604 2.375 4.748 1.301-0.681 2.796-0.681 4.155-1.188-0.732 0.864 1.318 0.329 0.591 1.188 1.557 0.342 2.835-0.514 4.155-1.188 1.618-0.449 2.579 0.69 3.561 1.782 0.303 1.088-0.368 1.984-0.595 2.965 1.493 0.409 2.585 1.181 3.561 2.374 0.034 1.692-1.223 3.057-1.188 4.746 1.382 1.687 2.928 0.438 4.747 0.595-1.873 0.839-4.757 0.757-4.152 3.561 1.898-0.062 0.561 1.677 1.778 2.374-1.072 1.684-0.411 3.56-0.591 5.339-0.073 0.955-0.932 1.519-1.188 2.373-0.607 1.99-1.633 1.89-1.188 3.561 0.77-0.336 0.745 1.715 1.78 0.595v1.778c1.252 1.275 2.38 2.516 2.968 4.156 0.288 0.816 1.066 1.021 1.63 1.335 0.861-0.114 1.446-0.956 2.373-0.89 1.778 0 4.449 1.63 5.193 0.146 0.77-1.5 2.55-1.94 3.89-2.39zm-15.81 77c0.573 0.013 0.962-0.396 1.466-0.329 0.573-0.873 0.883-2.247 0.003-3.042-0.443-0.398-0.541-0.927-0.389-1.553-0.108-0.222-0.222-0.481-0.612-0.51-1.438-0.102-3.113-0.617-4.256 0.852-1.331 2.519-2.801 5.032-4.781 6.879 0.236 0.817-0.912 0.954-0.674 1.767-0.624 0.07-1.052-0.37-1.507-0.737 0.29 1.705-1.694 2.431-1.402 4.133-0.937 0.083-1.101 0.867-1.192 1.722-2.747 0.466-5.365 1.579-8.051 2.345 0.037 0.979-1.5 0.497-1.197 1.722l-1.037-0.092c0.509 1.716-0.446 2.985-0.415 4.83-0.689-0.808-0.404 1.319-1.092 0.512-0.36 2.237-1.291 4.301-1.614 6.548 2.098 1.304 5.245 0.184 6.959-1.829 0.928 0.363 1.769-0.222 2.648-0.38 2.191 1.89 4.91 0.111 7.22 1.231l1.089-0.516c-0.165 0.702 0.133 1.269 0.364 1.857 0.214 0.443-0.716 1.108-0.197 0.987-1.389 0.529-1.645 0.352-3.073 0.551-1.515 1.728-3.475 2.582-5.506 3.174 2.43 2.614 4.835-1.475 7.424-1.181 1.254-2.613 4.205-3.373 6.546-3.085 3.11-2.772 5.55-7.114 4.677-11.754-1.566 0.229-2.449-1.462-3.428-2.728l-1.038-0.092c-0.781-1.25-1.288-3.01-2.854-3.285-0.531-1.414 0.14-1.607 0.209-2.411 0.836 0.845 1.357-0.769 2.127-0.427 1.6-1.32 1.47-5.2 3.57-5.15zm171.31-9.46c-0.434 0.38-0.942 0.693-1.188 1.256 0.562 1.655 0.681 3.658 2.018 4.981-0.614 0.516-1.4 0.857-1.679 1.702-0.167 0.785-0.509 1.798 0.358 2.367 1.675-0.345 3.548-1.016 5.174-0.225 1.215-1.225 3.348-1.247 3.348-1.247 2.406-1.382 2.222-4.281 1.251-6.516l0.821-1.462c-0.949-3.421-2.483-6.893-3.256-10.487l-1.338-1.475c-0.386 0.034-0.779 0.095-1.016-0.33-1.092 1.437-2.712 0.659-3.75-0.177-1.025 0.209-2.095 0.646-2.615 1.657 1.241 1.456 2.131 2.644 1.39 3.979-0.739 1.333-0.148 2.966 0.446 3.706 0.6 0.74-2.29 1.12 0.05 2.27zm148.9 60.93c0.478 0.167 0.854 0.839 1.355 0.614 0.428-0.637 0.617-1.672 0.598-2.764-0.557-0.61-1.174-0.356-1.652 0.308-0.6 0.95-0.3 1.84-0.3 1.84zm-56.97-19.58h-0.593v0.592c0.541 0.354 0.703 0.86 0.593 1.485-0.644 0.021-0.632 0.448-0.593 0.888 0.315 0.352 0.667 0.64 1.187 0.596-0.01 0.744-0.874 1.246-0.594 2.076 0.679 0.39 0.989 0.532 1.483 1.187 1.566 0.376 3.154 0.316 4.746 0.297-0.082 0.285 0.089 0.446 0.299 0.593h-0.595c-0.118 0.528-0.772 0.839-0.593 1.483 0.285-0.082 0.448 0.089 0.593 0.297v0.593c1.135 0.032 1.986 0.766 2.968 1.187-1.557 1.443-1.317 3.703-0.298 5.342-0.279 1.339-0.047 2.487 0 3.854-0.582 0.399-0.193 0.991-0.297 1.484 0.369 0.206 0.361 0.538 0.297 0.89 0.431 0.627 1.228 0.512 1.778 0.893 0.674-1.209 1.636-1.374 2.969-1.188 0.135-1.158 1.494-0.73 2.075-1.483 0.258-1.487-0.079-3.235-1.483-4.155-0.219-1.275 0.427-2.617-0.295-3.855-0.69 0.152-1.338-0.123-1.484-0.893 0.383-1.86-0.79-3.503-2.076-4.746-1.035-0.31-1.829-0.478-2.67-1.188-0.709-1.442 0.211-3.177-0.889-4.448-1.34 0.376-2.128-0.491-1.782-1.779-0.858-0.74-1.945-0.696-2.966-0.893 0.079 0.288-0.088 0.449-0.297 0.596-0.53-0.09-0.94 0.45-1.49 0.29zm-127.87 199.66l-0.59 0.3v1.485c0.943 0.16 1.69 0.81 2.672 0.591 0.852-0.613 1.225-1.613 1.186-2.668-1.11-0.58-2.32-0.34-3.27 0.3zm-300.82-64.56c1.051-1.823-7.729-1.443-9.073-0.19 0.302 1.031 0.6 2.061 1.159 2.994 0.938 0.325 2.076 0.051 2.832 0.931 0.509-0.203 0.993 0.689 1.514 0.031 0.986 1.047 2.653 0.351 3.637 1.414 0.686 0.2 1.375 0.339 2.091 0.159l0.322-1.446c-0.86-1.34-2.27-2.19-2.48-3.88zm45.7 21.37l2.896 0.642c0.674-1.389 1.05-2.812 0.966-4.345l-0.87-0.192c-0.871-0.955-2.27-1.392-3.475-0.77-1.273-1.167-3.023 0.079-4.539-0.096-0.943 0.637-0.943 2.564 0.836 2.713 1.781 0.146 2.818 0 2.671 0.74-0.16 0.75-0.24 2.33 1.5 1.32zm-32.6-13.31s-1.251-0.759-1.418-1.832c-1.031-0.965-2.301-1.247-3.538-0.484-0.693 1.438 0.172 2.737 0.611 4.088 0.571 0.497 1.208 0.899 1.835 1.32 0.822 0.63 2.034 0.39 2.769 1.219 1.319-0.219 2.64-0.048 3.959-0.032 0.269 0.77 0.826 1.311 1.415 1.833 0.639 0.082 1.263 0.022 1.87-0.196 0.36 0.997 1.37 1.43 1.931 2.253l1.158 0.257c0.421-0.27 0.993-0.199 1.351-0.611 1.669-0.044 3.349 0.788 4.893-0.133 1.852 0.329 3.637 1.081 5.567 0.929 0 0 0.381-1.062 1.478-1.188 0.189-1.272 0.538-3.11 2.221-3.154 0.944-0.017-0.351-2.061-1.353-2.124-0.765-1.209-1.08-2.589-2.801-2.443-0.108-0.616 0-1.256-0.194-1.867-2.3-0.572-4.554-1.914-5.794-4.019-0.801-0.137-1.398-0.829-2.257-0.805-0.294-0.208-0.585-0.424-0.74-0.771-1.581 0.854-3.386-0.402-5.051-0.513 0.038 1.582-4.626 0.599-3.674 1.434 1.187 1.038 2.206 2.754 1.781 3.263-0.74 0.893 0.14 3.095 0.737 3.253-1.639 0.905-3.222 0.111-4.826-0.158-0.43 0.81-1.34 0.07-1.94 0.48zm7.5-50.75c-0.23 0.03-0.481-0.445-0.893-0.297-0.418 1.525 1.772 3.781-0.592 4.452v0.592l0.592 0.595h0.596c0.629-0.588 1.066-1.195 0.89-2.079 0.487 0.089 0.639-0.328 0.888-0.591-0.863-0.066-0.521-1.022-0.591-1.484-0.43 0.367-0.164-0.661-0.595-0.298-0.19-0.239 0.321-0.717 0-0.89h-0.31zm-10.68 6.23c0.443-1.48-2.08-2.373-2.671-0.89-1.623 0.137-1.994 1.532-1.781 2.966 0.898 0.5 0.896 1.269 1.483 2.076 1.592-0.124 3.261 0.36 4.746-0.592v-2.076c-0.6-0.49-1.42-0.71-1.78-1.49zm-21.048 1.62s-3.724 3.134-5.199 3.572l-1.152-0.294-0.73 2.874c1.563 1.835 4.197 3.209 6.75 2.335l0.295-1.148 5.749 1.465c0.166-0.437-0.318-1.443 0.868-1.003 1.278 1.281 1.349 4.263 3.867 4.051l0.858 1.442c1.072 0.545 2.609 0.038 3.3 1.453l-0.292 1.152 1.148 0.291c-0.697 1.307 0.533 2.472 0.271 3.744-1.193 1.24-2.107 2.199-3.755 2.718-0.518 1.161-0.451 2.377-0.306 3.596 2.285 1.274 4.554 2.592 7.181 3.057 0.614-0.171 1.222-0.421 1.873-0.136 3.089 2.278 6.967 2.377 10.495 2.069 0.772-1.301 2.206-2.045 2.177-3.731-1.079-0.091-1.535-1.471-2.728-1.31-2.12 1.411-4.419-0.114-6.617-0.466-1.874-2.101-1.529-4.924-2.412-7.348l-4.025-1.028c-0.924-2.323 0.246-5.178-1.835-7.206-4.577-1.975-6.675-6.219-8.296-10.69-2.619-1.09-5.046-0.94-7.478 0.56zm-50.305 111.57c-2.075-0.591-3.559 1.188-2.371 2.374 1.186 1.187 3.559 3.562 0.888 2.969-2.668-0.595-4.188 2.76-2.668 3.264 1.78 0.591 4.151-0.891 6.229-0.596 1.184-1.18-0.001-6.22-2.078-8zm135.29 223.7l-0.529 0.684c-105.73-62.55-176.69-178.21-176.69-310.54 0-139.59 78.966-260.63 194.4-320.35l2.104 0.648c1.188 2.076-0.298 3.561-2.373 5.934-2.077 2.374-3.561 5.935-2.671 8.01 0.889 2.079-6.232 3.266-8.605 3.858-2.373 0.595-6.229 1.78-7.414 10.383-1.188 8.604-5.934 3.56-7.121 3.56s-5.044 6.528-8.307 6.231c-3.266-0.298-6.826 1.782-5.934 4.45 0.889 2.671-3.858 5.044-6.826 4.452 0.296 5.637-3.561 5.042-3.561 5.042s-0.592 3.856-6.823 5.044c-6.231 1.187-4.449 1.484-5.339 5.343-0.893 3.854-8.604 2.373-8.903 8.009-0.296 5.636-4.955-0.893-8.009 9.494-1.484 5.044-6.528 6.525-8.307 6.23-1.782-0.297-7.716 5.934-7.418 9.789-2.076 1.187-6.824-0.592-5.339 4.155l-4.155 0.889s2.077 8.308-3.858 9.792c-5.934 1.484-8.307 5.633-8.307 13.646 0 3.561-9.789 0.893-9.196 1.781 0.595 0.891 0 4.152 0 4.152s-4.45-4.747-2.076 6.827c-1.484 5.041-7.716 0.591-5.343 8.307 2.375 7.712-2.075-3.858-4.746 13.055-2.965 2.965 1.188 7.414-3.855 9.494 1.482 4.448-0.893 8.307-4.746 11.271-1.484 3.561 2.966 1.782-5.343 6.231 0 1.484-1.483 5.339-3.559 6.525-1.963 1.124-4.748 9.494-4.153 12.463 0 0-2.67 2.67-1.78 3.56 0.888 0.89 0.594 2.076-1.485 3.561-2.075 1.483 0 4.449 0 4.449l-1.777 2.076s1.186 2.969 0 4.155c-1.188 1.187-0.596 5.637 0.888 6.525 1.485 0.893 2.077-1.48 2.077-1.48s-0.592-3.858 0.594-3.858c1.188 0 1.188-2.373 1.188-2.373s0.89-5.934 2.373-5.934c1.484-2.672 1.352-6.548 1.484-9.197 0.295-5.934 2.668-7.12 2.668-7.12l0.667-3.637s2.599-4.968 4.079-4.968c1.485 0 2.375 0 1.783 1.187-0.596 1.188-2.969-0.298-3.858 4.748 0.298 2.67-0.592 5.043-0.592 5.043s-2.079 1.779-2.079 3.561c0 1.778 1.188 6.229 0.298 7.121-0.89 0.889-2.671 0.889-3.263 8.899-1.188 2.373-3.264 1.78-1.782 8.604-2.076 2.966-0.889 7.121 2.079 9.494 2.966 2.373 0.593 5.637-2.373 5.934v2.966c-4.453-1.778-2.08 3.561-1.782 4.747-2.373 1.187-4.151 4.747-1.778 4.155 2.373-0.595 0.593 2.965 0.593 2.965s-3.263 7.121-2.375 8.902c0.89 1.778 0.596 7.12 0.596 7.12h2.667s1.485 3.263 0 5.339c-1.48 2.079 1.783 3.857 2.374 5.045 0.595 1.187 0.893 2.671 0 4.154-0.889 1.481 2.672 4.152 1.484 6.525-1.188 2.374-0.298 7.121 2.075 7.716 2.375 0.593 2.969 2.966 6.231 2.076s1.782 4.747 1.782 4.747 3.263 4.747 2.373 6.231c0.593 1.48 3.561 1.48 3.561 1.48s-2.671 3.858-1.782 5.342c0.89 1.484 1.188 5.934 1.188 5.934l2.968 1.484s1.482 2.668 2.966 3.855-0.89 5.639 2.373 4.746c2.375 3.267 1.188 8.308-0.298 9.2-1.48 0.889 2.969 2.474 2.969 4.151 0 3.561 3.561 4.746 3.561 4.746-0.298 0.89-3.856 2.375-1.483 3.858 2.373 1.484 2.075 3.857 3.561 8.308 1.78 2.226 5.341 3.263 2.521 10.085-2.818 6.826 1.779 3.266 1.928 3.415 0.149 0.146-1.633 2.226 0.595 1.485 2.226-0.745 5.786-1.042 5.786 1.777 0 2.816 1.183 5.048 6.525 4.156 0.594-1.931 4.095-6.964 4.449-0.298 0.152 2.815 1.338 1.186 1.338 1.186s-0.691 3.374 1.333 4.894c0.595 0.446-0.298 2.67-0.298 2.67s2.228 1.931 1.34 5.193c-0.893 3.264 2.964 0.89 2.221 4.896-0.74 4.006 1.339 3.854 1.339 3.854s-1.757 1.513-2.374 8.307c-0.445 4.898-3.414 0.743-8.307 4.747 1.035 2.526-2.229 4.007-3.561 4.747-1.338 0.743-2.525 1.931-0.298 4.453-1.04 2.224-7.566 2.373-3.117 8.01-3.262 1.777-0.541 4.623-0.146 7.269 0.593 4.003-6.379 3.115-0.595 12.608l3.71-0.592s-1.782 4.006-2.82 4.449c-1.038 0.446 2.82 7.418 5.341 7.865 2.521 0.442 6.081 5.486 4.45 8.749 1.631 0.89 3.858 4.45 2.969 6.823-0.893 2.373 1.63 6.231 1.63 6.231s4.746 5.636 6.677 6.525c-3.414 3.712 3.561 8.459 5.339 8.308 1.782-0.146-2.521 8.459 10.681 13.649 0.443 7.418 8.532 5.626 10.532 12.164 2.225 7.27 9.494 6.972 9.494 6.972s4.45 2.225 3.117 6.972c2.816 0 3.113 0.446 2.966 1.187-0.149 0.743-3.561 4.153-3.561 4.153s4.896 1.633 3.113 7.271c-1.778 5.636 7.864 1.188 7.419 9.789 2.67 2.522-1.336 9.199 6.676 11.127-2.968 5.193-1.04 12.312 2.668 12.904 3.71 0.596-2.521 10.532 4.453 11.124v3.414s6.08-1.04 6.526 4.005c0.442 5.044 6.528 6.528 4.448 8.604-2.09 2.11 0.72 3.74 1.47 3.89z"/>
   <g transform="scale(-1,1) translate(-360,-360)">
    <path d="m608.12 127.93c1.143-0.311 1.225 1.5 2.373 1.186-0.436 1.811 0.383 3.102 1.779 4.153-0.598 2.736 0.854 4.667 1.782 7.12 1.145-0.466 1.68 0.557 2.373 1.187 1.87-1.237 2.528-4.187 2.373-6.525-0.863 0.075-1.436-0.987-2.373-0.595-0.778-1.716-0.607-3.532-0.595-5.34-2.813-1.016-1.025-3.769-2.373-5.934-2.178 0.279-4.353-0.866-6.526 1.188-1.17 1.48-0.28 4.14 1.2 3.55z" fill="#175DAB"/>
    <path d="m609.9 141.58c-0.591-4.152-7.712-6.525-4.151 2.968-2.969 2.374-3.561 8.309 5.934 8.309-1.782 4.151 5.338 6.822 4.747 10.085-0.595 3.266 1.48 3.56 3.561 3.56 2.076 0 6.524 0.596 6.524 4.747 2.373-0.889 6.231 0.298 5.046 5.64-1.188 5.339 4.746 5.041 5.636 5.041 0.889 0 6.772 12.138 10.089 0.298 2.076-7.418-4.155-5.044-4.155-5.044s-0.89-6.229-2.966-5.935c-2.079 0.298-1.484-5.636-3.857-5.934-2.373-0.294-3.263-0.294-4.449-2.373-2.97 0.893-4.453-10.085-8.308-9.197-3.858 0.89-5.934-2.075-5.934-2.075s-6.529-1.484-4.747-5.934c1.78-4.47-2.97-4.17-2.97-4.17z" fill="#175DAB"/>
    <path d="m183.27 87.582c-0.35 2.319-2.145 2.687-4.154 2.373v4.152c-0.639 0.702-1.339 1.281-2.374 1.187 0.88 0.987 2.045 2.107 3.561 1.781 1.846-1.54 4.241-2.465 6.528-2.373-0.133-1.199 0.899-1.934 1.188-2.969 2.004-1.325 4.876 0.38 5.934-2.373 0.431-1.807-0.389-3.099-1.781-4.152-1.219 0.022-2.291 0.905-3.561 0.592-0.034-1.965-1.583-3.428-1.779-5.338h-2.373v4.151c-0.58-0.161-0.902 0.181-1.188 0.595v2.374z" fill="#175DAB"/>
    <path d="m173.18 103.01c-0.4 0 0.39 0 0 0-0.32 0.554-0.715 1.082-0.592 1.778 2.12-0.01 4.257-0.329 5.934 1.187-1.107 0.811-0.393 1.98-0.595 2.969 0.415 0.288 0.757 0.61 0.595 1.187 4.025 1.076 2.86-3.604 2.966-5.935-0.922-1.515-2.604-1.188-4.153-1.186 0.162-0.576-0.18-0.899-0.595-1.188-1.338 0.234-3.557-1.829-4.151 0.593l0.59 0.6z" fill="#175DAB"/>
    <path d="m136.37 193.61c-4.13 1.373-4.725 7.307 0.617 6.12 5.338-1.187 9.218-2.44 9.801-1.073 0.583 1.371-2.386 4.042-0.604 3.745 1.779-0.298 1.779 1.78-1.187 3.856-2.968 2.077-4.873 4.45-7.336 7.757-4.83 6.484-2.157 18.054 3.776 4.409 5.934-13.649 7.417-10.682 7.417-10.682s5.637 0.295 0.592 8.01c1.484 1.187 2.075 0 3.561-0.297-3.561 2.969-2.644 17.516 2.671 3.856 2.075-5.341 1.554-5.019 1.554-5.019 4.38-1.51 5.117-9.74-3.113-9.184-1.409-5.38 4.229-8.643-2.299-11.905-1.186-3.857-8.575-3.437-9.63-1.421-1.05 1.99-5.25 2.81-5.82 1.81z" fill="#175DAB"/>
    <path d="m154.37 226.84c-2.614 1.405-4.168 11.674 0.713 5.212 4.879-6.465 3.866-5.715 3.866-5.715s2.291-3.257 3.963-2.402c1.674 0.854 3.836-1.52 4.259-2.354 0.428-0.836 2.969-3.754-3.047-1.661-6.02 2.088-4.821 4.069-6.373 4.434-1.56 0.36-3.99 0.59-3.38 2.48z" fill="#175DAB"/>
    <path d="m150.93 143.06c-1.484 2.373 3.264-6.823 3.858-1.188 0.591 5.637 0.591 6.823 1.48 7.716 0.893 0.89 1.483 5.339 0 7.415-1.48 2.079-1.778 1.782-2.373-1.481-0.592-3.266-0.89-6.23-1.482-7.418-0.595-1.187-1.483 0-1.78 1.484-0.298 1.481 0 4.747-0.89 5.637-0.89 0.889-4.747-3.263-2.671-5.637 2.07-2.36 5.04-4.74 3.85-6.52z" fill="#175DAB"/>
    <path d="m208.04 66.22c-0.442-0.89-9.196 0.591-1.034 4.747-0.596 1.93 0.293 6.677 2.815 1.037 0.447-1.335 3.118-1.633 3.118-1.633 0.442 1.633 2.815-1.63-0.152-3.408-2.966-1.782-2.222-3.712-2.222-3.712s-2.53 1.633-2.53 2.969z" fill="#175DAB"/>
    <path d="m684.08 428.18v1.78c-1.066 0.873-1.64 2.158-1.78 3.56 0.394 0.399 0.79 0.793 1.186 1.187-1.343 1.225-0.231 2.795-0.593 4.155-1.993-0.51-3.379 1.323-4.155 2.966-0.465 1.822 0.396 3.094 1.782 4.155-0.445 2.815 0.669 5.519 0.593 8.307 0.681 0.642 1.521 0.63 2.373 0.592-0.507-4.669 1.785-8.97 1.781-13.646 0.681-1.259 1.44-2.466 2.374-3.561h1.188c-0.222-2.55 2.135-4.36 1.186-7.119-1.557-0.548-2.402-1.943-3.561-2.97-0.98 0.558-1.578-0.414-2.373-0.591v1.19z" fill="#175DAB"/>
    <path d="m361.6 44.74c-131.21-21.57-218.21 24.178-273.99 81.142"/>
    <path d="m359.82 45.332c52.218-11.867 223.85 14.39 280.81 93.901"/>
    <path d="m715.4 384.15c2.623-139.6-118.48-333.52-359.73-340.6"/>
    <path d="m172.46 53.344c26.107-20.77 123.87-34.121 189.14-8.604"/>
    <path d="m371.24 0.976c-7.12 2.373-13.794 27.741-11.421 44.355 0 0 18.245-36.343 44.354-41.685"/>
    <path d="m359.82 45.332c43.909-18.988 157.09-16.168 215.24 28.928"/>
    <path d="m495.71 28.125c-27.888-8.902-98.501-10.682-135.88 17.206"/>
    <path d="m360.71 43.851c15.43-19.881 53.11-37.682 76.25-34.416"/>
    <path d="m360.42 45.332c-4.746-13.646-13.5-34.861-28.332-43.761"/>
    <path d="m288.62 7.356c26.109-0.592 66.458 26.703 72.984 37.384"/>
    <path d="m247.08 18.631c31.446-5.342 90.191 7.712 114.52 26.108"/>
    <path d="m219.04 29.014c-85.443 47.47-41.979 148.05 147.9 148.05 144.78 0 232.75-102.51 147.3-140.48"/>
    <path d="m115.06 96.957c-44.571 71.52 36.016 148.02 183.65 166.24 21.397 2.641 44.202 4.058 68.237 4.058 144.78 0 283.78-75.803 245.8-160.06"/>
    <path d="m46.081 185.22c-18.988 103.25 130.98 178.16 320.86 178.16 144.78 0 329.47-67.496 303.36-179.05"/>
    <path d="m6.62 295.29c24.922 97.312 170.3 165.26 360.18 165.26 144.78 0 341.78-66.458 340.6-180.39"/>
    <path d="m715.85 375.25c-18.99 116.3-208.87 175.63-354.84 172.07-198.18-4.747-318.34-53.85-359.88-170.15"/>
    <path d="m24.57 231.65c48.066-113.93 192.17-198.94 337.03-186.91"/>
    <path d="m1.431 385.34c-2.374-126.39 137.66-334.08 360.17-340.6"/>
    <path d="m39.998 524.18c-47.131-196.38 72.646-413.01 319.83-478.85"/>
    <path d="m145.03 649.38c-172.08-219.54 34.41-539.96 214.79-604.05"/>
    <path d="m226.91 695.67c-156.04-112.45-61.71-516.24 132.91-650.34"/>
    <path d="m359.82 45.332c-111.66 114.01-187.5 619.93-62.898 669.77"/>
    <path d="m347.96 720.3c-49.258-3.162-3.357-659.74 11.867-674.96"/>
    <path d="m677.43 523.59c61.063-206.63-36.495-403.94-319.98-479.44"/>
    <path d="m572.25 649.24c214.8-208.72-1.502-529.31-214.8-605.09"/>
    <path d="m490.37 695.37c178.29-119.69 123.47-474.57-132.92-651.22"/>
    <path d="m357.45 44.145c133.16 135.97 251.95 599.21 62.303 671.25"/>
    <path d="m368.87 720.44c126.58-8.117 8.757-656.11-11.421-676.3"/>
    <path d="m73.376 579.07c100.13 117.78 452.59 132.02 561.92 9.494"/>
    <path d="m226.61 695.22c58.384 25.935 201.52 27.175 263.76 0.152"/>
    <path d="m24.719 491.4c73.435 137.04 514.09 208.86 669.17-4.597"/>
   </g>
   <circle cx="0" cy="0" r="360" fill="url(#grad_globe)"/>
  </g>
 </defs>
 <circle cx="0" cy="0" r="99999" fill="#ffffff"/>
 <g id="main">
  <g transform="translate(100,170)">
   <g>
    <use xlink:href="#globe"/>
    <use xlink:href="#cylinder"/>
    <path d="M 0,0 H -61" class="angle"/>
    <use xlink:href="#equator" class="standard"/>
   </g>
   <g transform="translate(200,0)">
    <use xlink:href="#arrow" transform="translate(-120,-60)"/>
    <rect x="-100" y="-100" width="200" height="200" fill="url(#grad_cyl_tan)"/>
   </g>
   <g transform="translate(400,0)">
    <use xlink:href="#globe"/>
    <g mask="url(#mask_cylinder)">
     <use xlink:href="#cylinder" transform="scale(0.84,0.95)"/>
    </g>
    <use xlink:href="#secant_cylinder" class="standard"/>
    <use xlink:href="#secant_cylinder" class="standard" transform="translate(0,54)"/>
   </g>
   <g transform="translate(600,0)">
    <use xlink:href="#arrow" transform="translate(-125,-60)"/>
    <rect x="-100" y="-100" width="200" height="200" fill="url(#grad_cyl_sec)"/>
   </g>
  </g>
  <g transform="translate(100,425)">
   <g>
    <use xlink:href="#globe"/>
    <use xlink:href="#cone"/>
    <path d="M -50,-32 L 0,0 H -40 H -16 A 16,16 0 0 1 -14,-8" class="angle"/>
    <use xlink:href="#secant_cylinder" class="standard"/>
   </g>
   <g transform="translate(200,-50)">
    <use xlink:href="#arrow" transform="translate(-140,-30)"/>
    <path d="M -97,-56 A 112,112 0 1 0 97,-56 L 0,0 Z M 0,-112 a 1,1 0 1 0 1,0" fill="url(#grad_con_tan)"/>
   </g>
   <g transform="translate(400,0)">
    <use xlink:href="#globe"/>
    <g mask="url(#mask_cone)">
     <use xlink:href="#cone" transform="scale(0.9)"/>
    </g>
    <use xlink:href="#secant_cone" class="standard"/>
    <use xlink:href="#secant_plane" class="standard"/>
   </g>
   <g transform="translate(600,-50)">
    <use xlink:href="#arrow" transform="translate(-145,-30)"/>
    <path d="M -97,-56 A 112,112 0 1 0 97,-56 L 0,0 Z M 0,-112 a 1,1 0 1 0 1,0" fill="url(#grad_con_sec)"/>
   </g>
  </g>
  <g transform="translate(100,630)">
   <g>
    <use xlink:href="#globe"/>
    <use xlink:href="#plane"/>
    <path d="M 0,-50 V 0 H -30 H -10 V -10 H 0" class="angle"/>
    <ellipse cx="0" cy="-50" rx="2" ry="1" class="standard"/>
   </g>
   <g transform="translate(200,-20)">
    <use xlink:href="#arrow" transform="translate(-95,-60)"/>
    <circle cx="0" cy="0" r="90" fill="url(#grad_azi_tan)"/>
   </g>
   <g transform="translate(400,0)">
    <use xlink:href="#globe"/>
    <g mask="url(#mask_plane)">
     <use xlink:href="#plane" transform="translate(0,10) scale(0.95)"/>
    </g>
    <use xlink:href="#secant_plane" class="standard"/>
   </g>
   <g transform="translate(600,-20)">
    <use xlink:href="#arrow" transform="translate(-100,-50)"/>
    <circle cx="0" cy="0" r="90" fill="url(#grad_azi_sec)"/>
   </g>
  </g>
  <text transform="translate(230, 10)" y="0.6ex">Tangent</text>
  <text transform="translate(620, 10)" y="0.6ex">Secant</text>
  <text transform="translate(-75,150) scale(0.9,1)"
   ><tspan>Cylindrical</tspan><tspan x="0" dy="2ex"
   ><tspan class="var">&#981;</tspan><tspan dx="0.3ex">=</tspan
   ><tspan dx="0.3ex">0&#176;</tspan></tspan></text>
  <text transform="translate(-75,385) scale(0.9,1)"
   ><tspan>Conic</tspan><tspan x="0" dy="2ex"
   ><tspan>0&#176;</tspan><tspan dx="-0.3ex">&lt;</tspan
   ><tspan class="var" dx="0.1ex">&#981;</tspan
   ><tspan dx="0.1ex">&lt;90&#176;</tspan></tspan></text>
  <text transform="translate(-75,660) scale(0.9,1)"
   ><tspan>Azimuthal</tspan><tspan x="0" dy="2ex"
   ><tspan class="var">&#981;</tspan><tspan dx="0.3ex">=</tspan
   ><tspan dx="0.3ex">90&#176;</tspan></tspan></text>
  <text transform="translate(300,165) scale(0.5)"
   ><tspan fill="#cc0000">Standard</tspan><tspan x="0" dy="2ex" fill="#cc0000">parallel</tspan
   ><tspan x="0" dy="-7ex">More scale</tspan><tspan x="0" dy="2ex">expansion</tspan
   ><tspan x="0" dy="8ex" >More scale</tspan><tspan x="0" dy="2ex">expansion</tspan></text>
  <text transform="translate(700,165) scale(0.5)"
   ><tspan>Scale</tspan><tspan x="0" dy="2ex">compression</tspan
   ><tspan x="0" dy="-7ex">Less scale</tspan><tspan x="0" dy="2ex">expansion</tspan
   ><tspan x="0" dy="8ex" >Less scale</tspan><tspan x="0" dy="2ex">expansion</tspan></text>
 </g>
</svg>
